<?xml version="1.0" encoding="UTF-8"?>
<svg id="Calque_1" xmlns="http://www.w3.org/2000/svg" version="1.1" viewBox="0 0 24 24">
  <!-- Generator: Adobe Illustrator 30.2.0, SVG Export Plug-In . SVG Version: 2.1.1 Build 105)  -->
  <path d="M10.5,0c3.6-.5,6.9.7,9.4,2.8s.9.3,1.2,0l1.2-1.2c.4-.4.8-.2.8,0l.9,6c0,.3-.2.5-.4.5l-6.1-.8c-.3,0-.5-.4-.2-.7l1.2-1.2c.4-.4.3-1,0-1.3-2.1-1.7-5-2.6-8-2.1S2.9,6,2.2,10.1c-1.2,6.3,3.7,11.9,9.8,11.9s6.6-1.8,8.4-4.6.9-.6,1.4-.3h0c.5.3.6.9.3,1.4-2.1,3.3-5.9,5.5-10.1,5.5C4.9,24-.7,17.9,0,10.6.7,5.2,5,.8,10.5,0Z"/>
</svg>